<svg id="visual" viewBox="0 0 400 1600" width="400" height="1600" xmlns="http://www.w3.org/2000/svg" xmlns:xlink="http://www.w3.org/1999/xlink" version="1.1"><rect width="400" height="1600" fill="#F5F5F5"></rect><g><g transform="translate(286 921)"><path d="M38.5 -31.5C50.3 -15.9 60.5 0.1 59.1 16.4C57.7 32.7 44.7 49.2 29.3 53.9C13.9 58.7 -3.8 51.7 -16.5 42.4C-29.2 33.2 -36.9 21.7 -42.8 6.6C-48.7 -8.4 -52.9 -26.9 -45.5 -41.5C-38 -56.1 -19 -66.7 -2.8 -64.4C13.4 -62.2 26.7 -47.1 38.5 -31.5Z" fill="#f0bebe"></path></g><g transform="translate(141 239)"><path d="M26.3 -24.1C30.9 -15.2 29.3 -4.5 26.4 5.3C23.6 15 19.6 23.6 11.8 29.2C4 34.8 -7.6 37.3 -18.3 33.8C-29 30.2 -38.7 20.7 -39.6 10.8C-40.5 0.9 -32.5 -9.3 -24.4 -19C-16.3 -28.7 -8.2 -37.9 1.3 -39C10.9 -40 21.7 -33 26.3 -24.1Z" fill="#f0bebe"></path></g><g transform="translate(95 585)"><path d="M49.5 -39.1C58.3 -28.4 55.7 -8.1 51 11.4C46.4 30.9 39.7 49.6 25.5 58.6C11.4 67.6 -10.2 66.8 -29.7 58.6C-49.2 50.4 -66.6 34.8 -69.5 17.3C-72.4 -0.2 -60.7 -19.7 -46.7 -31.6C-32.7 -43.6 -16.3 -48 2 -49.6C20.3 -51.2 40.6 -49.9 49.5 -39.1Z" fill="#f0bebe"></path></g><g transform="translate(221 1185)"><path d="M45.1 -42.7C51.8 -27.6 46 -9.2 40.1 6.1C34.1 21.4 28.1 33.7 18.1 39C8.1 44.4 -5.9 42.8 -18.2 37.1C-30.5 31.4 -41.1 21.6 -46.6 7.7C-52.2 -6.2 -52.6 -24.3 -44 -39.9C-35.4 -55.4 -17.7 -68.5 0.7 -69.1C19.2 -69.7 38.4 -57.8 45.1 -42.7Z" fill="#f0bebe"></path></g><g transform="translate(295 606)"><path d="M47 -34.2C59.4 -21.9 66.9 -2.5 63.6 15.6C60.3 33.6 46.3 50.2 29.5 56.5C12.8 62.7 -6.7 58.5 -22.8 49.8C-38.9 41.1 -51.6 27.9 -53.4 13.9C-55.3 -0.2 -46.3 -15 -35.6 -26.8C-24.9 -38.7 -12.5 -47.6 2.4 -49.6C17.3 -51.5 34.6 -46.4 47 -34.2Z" fill="#f0bebe"></path></g><g transform="translate(290 1462)"><path d="M30.6 -24.4C40 -12.6 48.1 0.1 46.7 12.4C45.3 24.7 34.3 36.5 20.9 42.8C7.5 49 -8.4 49.6 -17.9 42.9C-27.5 36.1 -30.9 22 -32.4 9.1C-34 -3.7 -33.8 -15.3 -28.1 -26.2C-22.4 -37 -11.2 -47.3 -0.3 -47C10.6 -46.8 21.2 -36.1 30.6 -24.4Z" fill="#f0bebe"></path></g><g transform="translate(133 781)"><path d="M36.9 -31.2C43.6 -21 41.9 -5.9 38.9 9.5C35.9 24.9 31.5 40.6 20.6 47.7C9.8 54.8 -7.5 53.2 -22.8 46.3C-38 39.3 -51.1 27 -51.5 14.8C-51.8 2.6 -39.4 -9.5 -28.7 -20.5C-18 -31.6 -9 -41.7 3 -44.1C15.1 -46.5 30.2 -41.3 36.9 -31.2Z" fill="#f0bebe"></path></g><g transform="translate(287 348)"><path d="M13.1 -11.5C15.5 -7.5 14.9 -2.1 13.7 3C12.4 8.1 10.5 12.9 6.5 15.7C2.6 18.4 -3.5 19 -7.5 16.7C-11.6 14.3 -13.8 9 -14 4.3C-14.2 -0.4 -12.4 -4.4 -9.7 -8.4C-7 -12.5 -3.5 -16.5 0.9 -17.3C5.4 -18 10.7 -15.4 13.1 -11.5Z" fill="#f0bebe"></path></g><g transform="translate(102 1443)"><path d="M24.2 -18.6C29.7 -12.4 31.3 -2.5 29 6.2C26.7 14.9 20.5 22.2 12.9 25.3C5.3 28.4 -3.6 27.2 -10.6 23.4C-17.5 19.5 -22.5 12.9 -23 6.4C-23.5 0 -19.6 -6.2 -15 -12.2C-10.4 -18.1 -5.2 -23.8 2.1 -25.4C9.4 -27.1 18.7 -24.7 24.2 -18.6Z" fill="#f0bebe"></path></g><g transform="translate(284 117)"><path d="M40.9 -27C53.1 -17.3 63.1 -0.3 61.1 16.2C59.1 32.7 45.2 48.8 29.8 52.5C14.5 56.3 -2.2 47.8 -17.1 39.2C-32.1 30.6 -45.2 22 -49.8 9.3C-54.4 -3.4 -50.4 -20.2 -40.6 -29.3C-30.9 -38.4 -15.4 -39.8 -0.5 -39.4C14.4 -39 28.7 -36.7 40.9 -27Z" fill="#f0bebe"></path></g><g transform="translate(91 967)"><path d="M33.7 -27.9C43.8 -14.1 52.4 -0.1 50.9 13.8C49.5 27.7 38 41.5 24.2 46.9C10.3 52.4 -6.1 49.5 -21.9 42.9C-37.7 36.3 -52.9 25.9 -58.1 11.1C-63.2 -3.7 -58.1 -23 -46.8 -37.1C-35.4 -51.2 -17.7 -60 -3 -57.7C11.8 -55.3 23.5 -41.7 33.7 -27.9Z" fill="#f0bebe"></path></g></g></svg>