        <svg
          id="visual"
          viewBox="0 0 900 500"
          xmlns="http://www.w3.org/2000/svg"
          xmlns:xlink="http://www.w3.org/1999/xlink"
          version="1.1"
        >
          <path
            d="M0 508L21.5 493.3C43 478.7 86 449.3 128.8 443C171.7 436.7 214.3 453.3 257.2 451.5C300 449.7 343 429.3 385.8 423.3C428.7 417.3 471.3 425.7 514.2 439.7C557 453.7 600 473.3 642.8 471.5C685.7 469.7 728.3 446.3 771.2 436.3C814 426.3 857 429.7 878.5 431.3L900 433L900 150L878.5 150C857 150 814 150 771.2 150C728.3 150 685.7 150 642.8 150C600 150 557 150 514.2 150C471.3 150 428.7 150 385.8 150C343 150 300 150 257.2 150C214.3 150 171.7 150 128.8 150C86 150 43 150 21.5 150L0 150Z"
            fill="#7F1710"
          ></path>
          <path
            d="M0 377L21.5 375.7C43 374.3 86 371.7 128.8 371.8C171.7 372 214.3 375 257.2 378.2C300 381.3 343 384.7 385.8 392.7C428.7 400.7 471.3 413.3 514.2 420.5C557 427.7 600 429.3 642.8 429.2C685.7 429 728.3 427 771.2 422.3C814 417.7 857 410.3 878.5 406.7L900 403L900 0L878.5 0C857 0 814 0 771.2 0C728.3 0 685.7 0 642.8 0C600 0 557 0 514.2 0C471.3 0 428.7 0 385.8 0C343 0 300 0 257.2 0C214.3 0 171.7 0 128.8 0C86 0 43 0 21.5 0L0 0Z"
            fill="#6f1612"
          ></path>
          <path
            d="M0 355L21.5 351.2C43 347.3 86 339.7 128.8 332.8C171.7 326 214.3 320 257.2 315.5C300 311 343 308 385.8 316.8C428.7 325.7 471.3 346.3 514.2 348C557 349.7 600 332.3 642.8 334.7C685.7 337 728.3 359 771.2 367.3C814 375.7 857 370.3 878.5 367.7L900 365L900 0L878.5 0C857 0 814 0 771.2 0C728.3 0 685.7 0 642.8 0C600 0 557 0 514.2 0C471.3 0 428.7 0 385.8 0C343 0 300 0 257.2 0C214.3 0 171.7 0 128.8 0C86 0 43 0 21.5 0L0 0Z"
            fill="#5f1513"
          ></path>
          <path
            d="M0 329L21.5 327.3C43 325.7 86 322.3 128.8 312.2C171.7 302 214.3 285 257.2 286.3C300 287.7 343 307.3 385.8 314.7C428.7 322 471.3 317 514.2 313.8C557 310.7 600 309.3 642.8 302.5C685.7 295.7 728.3 283.3 771.2 287C814 290.7 857 310.3 878.5 320.2L900 330L900 0L878.5 0C857 0 814 0 771.2 0C728.3 0 685.7 0 642.8 0C600 0 557 0 514.2 0C471.3 0 428.7 0 385.8 0C343 0 300 0 257.2 0C214.3 0 171.7 0 128.8 0C86 0 43 0 21.5 0L0 0Z"
            fill="#4f1413"
          ></path>
          <path
            d="M0 269L21.5 267.7C43 266.3 86 263.7 128.8 257.3C171.7 251 214.3 241 257.2 237.2C300 233.3 343 235.7 385.8 233C428.7 230.3 471.3 222.7 514.2 222C557 221.3 600 227.7 642.8 234.8C685.7 242 728.3 250 771.2 255.2C814 260.3 857 262.7 878.5 263.8L900 265L900 0L878.5 0C857 0 814 0 771.2 0C728.3 0 685.7 0 642.8 0C600 0 557 0 514.2 0C471.3 0 428.7 0 385.8 0C343 0 300 0 257.2 0C214.3 0 171.7 0 128.8 0C86 0 43 0 21.5 0L0 0Z"
            fill="#3f1212"
          ></path>
          <path
            d="M0 160L21.5 162C43 164 86 168 128.8 171.2C171.7 174.3 214.3 176.7 257.2 173.7C300 170.7 343 162.3 385.8 165.8C428.7 169.3 471.3 184.7 514.2 193.8C557 203 600 206 642.8 203.7C685.7 201.3 728.3 193.7 771.2 194C814 194.3 857 202.7 878.5 206.8L900 211L900 0L878.5 0C857 0 814 0 771.2 0C728.3 0 685.7 0 642.8 0C600 0 557 0 514.2 0C471.3 0 428.7 0 385.8 0C343 0 300 0 257.2 0C214.3 0 171.7 0 128.8 0C86 0 43 0 21.5 0L0 0Z"
            fill="#301110"
          ></path>
          <path
            d="M0 97L21.5 104.5C43 112 86 127 128.8 130.2C171.7 133.3 214.3 124.7 257.2 126.2C300 127.7 343 139.3 385.8 139.3C428.7 139.3 471.3 127.7 514.2 122C557 116.3 600 116.7 642.8 115C685.7 113.3 728.3 109.7 771.2 105.8C814 102 857 98 878.5 96L900 94L900 0L878.5 0C857 0 814 0 771.2 0C728.3 0 685.7 0 642.8 0C600 0 557 0 514.2 0C471.3 0 428.7 0 385.8 0C343 0 300 0 257.2 0C214.3 0 171.7 0 128.8 0C86 0 43 0 21.5 0L0 0Z"
            fill="#210d0c"
          ></path>
          <path
            d="M0 64L21.5 61.2C43 58.3 86 52.7 128.8 50.8C171.7 49 214.3 51 257.2 55C300 59 343 65 385.8 70C428.7 75 471.3 79 514.2 80.8C557 82.7 600 82.3 642.8 75.2C685.7 68 728.3 54 771.2 50.3C814 46.7 857 53.3 878.5 56.7L900 60L900 0L878.5 0C857 0 814 0 771.2 0C728.3 0 685.7 0 642.8 0C600 0 557 0 514.2 0C471.3 0 428.7 0 385.8 0C343 0 300 0 257.2 0C214.3 0 171.7 0 128.8 0C86 0 43 0 21.5 0L0 0Z"
            fill="#0f0606"
          ></path>
        </svg>