<svg
          id="visual"
          viewBox="0 0 900 150"
          xmlns="http://www.w3.org/2000/svg"
          xmlns:xlink="http://www.w3.org/1999/xlink"
          version="1.1"
        >
          <path
            d="M0 132L18.8 135C37.7 138 75.3 144 112.8 147.7C150.3 151.3 187.7 152.7 225.2 146.5C262.7 140.3 300.3 126.7 337.8 124.3C375.3 122 412.7 131 450.2 133.7C487.7 136.3 525.3 132.7 562.8 130C600.3 127.3 637.7 125.7 675.2 130.7C712.7 135.7 750.3 147.3 787.8 149.5C825.3 151.7 862.7 144.3 881.3 140.7L900 137L900 0L881.3 0C862.7 0 825.3 0 787.8 0C750.3 0 712.7 0 675.2 0C637.7 0 600.3 0 562.8 0C525.3 0 487.7 0 450.2 0C412.7 0 375.3 0 337.8 0C300.3 0 262.7 0 225.2 0C187.7 0 150.3 0 112.8 0C75.3 0 37.7 0 18.8 0L0 0Z"
            fill="#7f1710"
          ></path>
          <path
            d="M0 119L18.8 116.5C37.7 114 75.3 109 112.8 111C150.3 113 187.7 122 225.2 121.2C262.7 120.3 300.3 109.7 337.8 107C375.3 104.3 412.7 109.7 450.2 114.3C487.7 119 525.3 123 562.8 119.5C600.3 116 637.7 105 675.2 106.3C712.7 107.7 750.3 121.3 787.8 123.7C825.3 126 862.7 117 881.3 112.5L900 108L900 0L881.3 0C862.7 0 825.3 0 787.8 0C750.3 0 712.7 0 675.2 0C637.7 0 600.3 0 562.8 0C525.3 0 487.7 0 450.2 0C412.7 0 375.3 0 337.8 0C300.3 0 262.7 0 225.2 0C187.7 0 150.3 0 112.8 0C75.3 0 37.7 0 18.8 0L0 0Z"
            fill="#720f0c"
          ></path>
          <path
            d="M0 84L18.8 89.5C37.7 95 75.3 106 112.8 111C150.3 116 187.7 115 225.2 109C262.7 103 300.3 92 337.8 88.2C375.3 84.3 412.7 87.7 450.2 91.7C487.7 95.7 525.3 100.3 562.8 102.5C600.3 104.7 637.7 104.3 675.2 101.2C712.7 98 750.3 92 787.8 88C825.3 84 862.7 82 881.3 81L900 80L900 0L881.3 0C862.7 0 825.3 0 787.8 0C750.3 0 712.7 0 675.2 0C637.7 0 600.3 0 562.8 0C525.3 0 487.7 0 450.2 0C412.7 0 375.3 0 337.8 0C300.3 0 262.7 0 225.2 0C187.7 0 150.3 0 112.8 0C75.3 0 37.7 0 18.8 0L0 0Z"
            fill="#650607"
          ></path>
          <path
            d="M0 92L18.8 89.5C37.7 87 75.3 82 112.8 77.2C150.3 72.3 187.7 67.7 225.2 68.8C262.7 70 300.3 77 337.8 78C375.3 79 412.7 74 450.2 76.3C487.7 78.7 525.3 88.3 562.8 90.2C600.3 92 637.7 86 675.2 80.3C712.7 74.7 750.3 69.3 787.8 69.5C825.3 69.7 862.7 75.3 881.3 78.2L900 81L900 0L881.3 0C862.7 0 825.3 0 787.8 0C750.3 0 712.7 0 675.2 0C637.7 0 600.3 0 562.8 0C525.3 0 487.7 0 450.2 0C412.7 0 375.3 0 337.8 0C300.3 0 262.7 0 225.2 0C187.7 0 150.3 0 112.8 0C75.3 0 37.7 0 18.8 0L0 0Z"
            fill="#590000"
          ></path>
          <path
            d="M0 60L18.8 57.5C37.7 55 75.3 50 112.8 52.7C150.3 55.3 187.7 65.7 225.2 68.5C262.7 71.3 300.3 66.7 337.8 62.5C375.3 58.3 412.7 54.7 450.2 53.3C487.7 52 525.3 53 562.8 55.8C600.3 58.7 637.7 63.3 675.2 65.5C712.7 67.7 750.3 67.3 787.8 68.3C825.3 69.3 862.7 71.7 881.3 72.8L900 74L900 0L881.3 0C862.7 0 825.3 0 787.8 0C750.3 0 712.7 0 675.2 0C637.7 0 600.3 0 562.8 0C525.3 0 487.7 0 450.2 0C412.7 0 375.3 0 337.8 0C300.3 0 262.7 0 225.2 0C187.7 0 150.3 0 112.8 0C75.3 0 37.7 0 18.8 0L0 0Z"
            fill="#4b0000"
          ></path>
          <path
            d="M0 46L18.8 45.5C37.7 45 75.3 44 112.8 43.5C150.3 43 187.7 43 225.2 42.5C262.7 42 300.3 41 337.8 38.8C375.3 36.7 412.7 33.3 450.2 31C487.7 28.7 525.3 27.3 562.8 27C600.3 26.7 637.7 27.3 675.2 32C712.7 36.7 750.3 45.3 787.8 45.3C825.3 45.3 862.7 36.7 881.3 32.3L900 28L900 0L881.3 0C862.7 0 825.3 0 787.8 0C750.3 0 712.7 0 675.2 0C637.7 0 600.3 0 562.8 0C525.3 0 487.7 0 450.2 0C412.7 0 375.3 0 337.8 0C300.3 0 262.7 0 225.2 0C187.7 0 150.3 0 112.8 0C75.3 0 37.7 0 18.8 0L0 0Z"
            fill="#3f0000"
          ></path>
          <path
            d="M0 23L18.8 21C37.7 19 75.3 15 112.8 13.3C150.3 11.7 187.7 12.3 225.2 15C262.7 17.7 300.3 22.3 337.8 26C375.3 29.7 412.7 32.3 450.2 30C487.7 27.7 525.3 20.3 562.8 16.3C600.3 12.3 637.7 11.7 675.2 13C712.7 14.3 750.3 17.7 787.8 17.3C825.3 17 862.7 13 881.3 11L900 9L900 0L881.3 0C862.7 0 825.3 0 787.8 0C750.3 0 712.7 0 675.2 0C637.7 0 600.3 0 562.8 0C525.3 0 487.7 0 450.2 0C412.7 0 375.3 0 337.8 0C300.3 0 262.7 0 225.2 0C187.7 0 150.3 0 112.8 0C75.3 0 37.7 0 18.8 0L0 0Z"
            fill="#000000"
          ></path>
        </svg>